<svg width="56" height="56" viewBox="0 0 56 56" fill="none" xmlns="http://www.w3.org/2000/svg">
<rect x="0.5" y="0.5" width="55" height="55" rx="15.5" fill="white"/>
<path d="M22.7093 20.6333C22.5909 18.657 23.141 16.9779 24.5576 15.6829C25.5067 14.7985 26.7333 14.3199 27.9982 14.3405C29.5824 14.3475 30.9136 14.986 31.9698 16.2351C33.0259 17.4842 33.3893 18.9674 33.2885 20.6341C33.9563 20.6341 34.5881 20.6248 35.2199 20.6341C35.8653 20.6474 36.4831 20.9128 36.9544 21.3793C37.4256 21.8457 37.7169 22.4802 37.772 23.1603C37.8206 23.8097 37.8456 24.4607 37.8735 25.1109C38.0172 28.3059 38.1594 31.5007 38.3001 34.6952C38.3692 36.2585 38.4472 37.8218 38.498 39.3859C38.5553 41.0612 37.3947 41.6556 35.8075 41.6572C30.6023 41.6624 25.3975 41.6624 20.1932 41.6572C18.6082 41.6572 17.4351 41.0565 17.5028 39.3851C17.6366 36.0734 17.7933 32.7633 17.9389 29.4516C18.0206 27.6067 18.0963 25.7611 18.1824 23.917C18.1883 23.5284 18.2252 23.141 18.2927 22.759C18.4247 22.1626 18.741 21.6299 19.1915 21.245C19.642 20.8601 20.201 20.6452 20.7801 20.6341C21.4031 20.6248 22.0282 20.6333 22.7093 20.6333ZM28.0835 39.8524C30.6768 39.8524 32.7895 39.8524 35.8075 39.8524C36.7313 39.8524 36.7468 38.7306 36.7313 38.0999C36.724 37.7794 36.746 38.2141 36.7313 37.8937C36.5916 34.7469 36.4165 32.1921 36.2753 29.0464C36.1922 27.1797 36.1143 25.3131 36.0223 23.4527C35.9892 22.7823 35.6362 22.4587 35.0022 22.4619C33.6602 22.4681 32.3177 22.4735 30.9747 22.4782L20.9596 22.507C20.3528 22.507 20.013 22.8297 19.9755 23.469C19.9299 24.2351 19.9071 25.0036 19.8725 25.7704C19.6715 30.2954 19.5737 33.3682 19.3727 37.8937C19.3388 38.6582 19.1915 39.8524 20.1932 39.8524H28.0835ZM31.4983 20.6178C31.6136 19.8684 31.5159 19.0997 31.2176 18.4091C30.9193 17.7184 30.4339 17.137 29.8229 16.7383C29.2214 16.3549 28.5254 16.1699 27.8239 16.2071C27.1225 16.2442 26.4474 16.5017 25.8851 16.9468C24.7907 17.8194 24.2987 19.1867 24.5105 20.6178H31.4983Z" fill="#6D7784"/>
<rect x="29" y="5" width="22" height="22" rx="11" fill="#E53D18"/>
<path d="M39.9969 21.6392C39.2843 21.6392 38.6546 21.5166 38.1077 21.2713C37.5641 21.026 37.1382 20.688 36.83 20.2571C36.5218 19.8262 36.3693 19.3357 36.3726 18.7855C36.3693 18.3546 36.4571 17.9586 36.6361 17.5973C36.8184 17.2327 37.0653 16.9295 37.3769 16.6875C37.6884 16.4422 38.0364 16.2865 38.4209 16.2202V16.1605C37.9138 16.0379 37.5078 15.7661 37.2029 15.3452C36.8979 14.9242 36.7471 14.4403 36.7504 13.8935C36.7471 13.3731 36.8847 12.9091 37.1631 12.5014C37.4448 12.0904 37.8309 11.7673 38.3215 11.532C38.812 11.2966 39.3705 11.179 39.9969 11.179C40.6167 11.179 41.1702 11.2983 41.6574 11.5369C42.1479 11.7723 42.5341 12.0954 42.8158 12.5064C43.0975 12.9141 43.24 13.3764 43.2433 13.8935C43.24 14.4403 43.0843 14.9242 42.776 15.3452C42.4678 15.7661 42.0667 16.0379 41.5729 16.1605V16.2202C41.954 16.2865 42.2971 16.4422 42.602 16.6875C42.9102 16.9295 43.1555 17.2327 43.3378 17.5973C43.5234 17.9586 43.6179 18.3546 43.6212 18.7855C43.6179 19.3357 43.4621 19.8262 43.1539 20.2571C42.8456 20.688 42.4181 21.026 41.8712 21.2713C41.3276 21.5166 40.7029 21.6392 39.9969 21.6392ZM39.9969 20.3814C40.4178 20.3814 40.7824 20.3118 41.0906 20.1726C41.3989 20.0301 41.6375 19.8329 41.8066 19.581C41.9756 19.3258 42.0618 19.0275 42.0651 18.6861C42.0618 18.3314 41.969 18.0182 41.7867 17.7464C41.6077 17.4747 41.3641 17.2609 41.0558 17.1051C40.7476 16.9493 40.3946 16.8714 39.9969 16.8714C39.5959 16.8714 39.2396 16.9493 38.928 17.1051C38.6164 17.2609 38.3712 17.4747 38.1922 17.7464C38.0132 18.0182 37.9254 18.3314 37.9287 18.6861C37.9254 19.0275 38.0066 19.3258 38.1723 19.581C38.3414 19.8329 38.5816 20.0301 38.8932 20.1726C39.2048 20.3118 39.5727 20.3814 39.9969 20.3814ZM39.9969 15.6435C40.335 15.6435 40.6349 15.5755 40.8968 15.4396C41.1586 15.3037 41.3641 15.1148 41.5132 14.8729C41.6657 14.6309 41.7436 14.3475 41.7469 14.0227C41.7436 13.7045 41.6673 13.4261 41.5182 13.1875C41.3724 12.9489 41.1685 12.7649 40.9067 12.6357C40.6449 12.5031 40.3416 12.4368 39.9969 12.4368C39.6456 12.4368 39.3373 12.5031 39.0722 12.6357C38.8103 12.7649 38.6065 12.9489 38.4607 13.1875C38.3148 13.4261 38.2436 13.7045 38.2469 14.0227C38.2436 14.3475 38.3165 14.6309 38.4656 14.8729C38.6148 15.1148 38.8203 15.3037 39.0821 15.4396C39.3473 15.5755 39.6522 15.6435 39.9969 15.6435Z" fill="white"/>
<rect x="0.5" y="0.5" width="55" height="55" rx="15.5" stroke="#DAE9F4"/>
</svg>
