<svg width="137" height="56" viewBox="0 0 137 56" fill="none" xmlns="http://www.w3.org/2000/svg">
<rect x="0.5" y="0.5" width="136" height="55" rx="15.5" fill="white"/>
<path d="M69.8494 36V20.7273H71.6989V34.3594H78.7983V36H69.8494ZM83.5114 20.7273V36H81.6619V20.7273H83.5114ZM87.846 20.7273L92.3801 33.5838H92.559L97.0931 20.7273H99.032L93.4241 36H91.515L85.907 20.7273H87.846ZM101.411 36V20.7273H110.628V22.3679H103.26V27.5284H110.151V29.169H103.26V34.3594H110.748V36H101.411Z" fill="#6D7784"/>
<path d="M40 41.7143C47.5742 41.7143 53.7143 35.5742 53.7143 28C53.7143 20.4258 47.5742 14.2857 40 14.2857C32.4258 14.2857 26.2857 20.4258 26.2857 28C26.2857 35.5742 32.4258 41.7143 40 41.7143Z" fill="#212225"/>
<path d="M39.9999 40.8636C47.1043 40.8636 52.8635 35.1044 52.8635 28C52.8635 20.8957 47.1043 15.1365 39.9999 15.1365C32.8956 15.1365 27.1364 20.8957 27.1364 28C27.1364 35.1044 32.8956 40.8636 39.9999 40.8636Z" fill="#212225"/>
<path d="M40.0001 39.1643C46.1659 39.1643 51.1644 34.1659 51.1644 28C51.1644 21.8342 46.1659 16.8358 40.0001 16.8358C33.8342 16.8358 28.8358 21.8342 28.8358 28C28.8358 34.1659 33.8342 39.1643 40.0001 39.1643Z" fill="#406A80"/>
<path d="M40.0004 38.9496C33.9626 38.9496 29.0508 34.0375 29.0508 28C29.0508 21.9625 33.9626 17.0507 40.0004 17.0507C46.0381 17.0507 50.9499 21.9625 50.9499 28C50.9499 34.0375 46.0381 38.9496 40.0004 38.9496Z" fill="#47748C"/>
<path d="M40.0004 38.7353C34.0809 38.7353 29.2651 33.9192 29.2651 28C29.2651 22.0808 34.0809 17.265 40.0004 17.265C45.9198 17.265 50.7356 22.0808 50.7356 28C50.7356 33.9192 45.9198 38.7353 40.0004 38.7353Z" fill="#3A5F73"/>
<path d="M40.0003 38.3067C34.3173 38.3067 29.6936 33.6833 29.6936 28C29.6936 22.3169 34.3171 17.6935 40.0003 17.6935C45.6836 17.6935 50.3071 22.3169 50.3071 28C50.3071 33.6831 45.6834 38.3067 40.0003 38.3067Z" fill="#406A80"/>
<path d="M40.0004 38.0924C34.4351 38.0924 29.9079 33.5648 29.9079 28C29.9079 22.4352 34.4351 17.9078 40.0004 17.9078C45.5656 17.9078 50.0928 22.4352 50.0928 28C50.0928 33.5648 45.5656 38.0924 40.0004 38.0924Z" fill="#47748C"/>
<path d="M40.0004 37.4496C34.7902 37.4496 30.5508 33.2104 30.5508 28C30.5508 22.7897 34.7896 18.5507 40.0004 18.5507C45.2111 18.5507 49.4499 22.7897 49.4499 28C49.4499 33.2102 45.2105 37.4496 40.0004 37.4496Z" fill="#3A5F73"/>
<path d="M39.9996 35.345C35.9496 35.345 32.6545 32.0499 32.6545 27.9999C32.6545 23.9497 35.9496 20.6547 39.9996 20.6547C44.0496 20.6547 47.3447 23.9497 47.3447 27.9999C47.3447 32.0499 44.0496 35.345 39.9996 35.345Z" fill="#1E2C33"/>
<path d="M39.9999 35.1314C43.9385 35.1314 47.1313 31.9386 47.1313 28C47.1313 24.0614 43.9385 20.8686 39.9999 20.8686C36.0613 20.8686 32.8685 24.0614 32.8685 28C32.8685 31.9386 36.0613 35.1314 39.9999 35.1314Z" fill="#263740"/>
<path d="M39.9996 34.9165C36.1858 34.9165 33.0831 31.8138 33.0831 28C33.0831 24.1861 36.1858 21.0833 39.9996 21.0833C43.8135 21.0833 46.9161 24.1861 46.9161 28C46.9161 31.8138 43.8135 34.9165 39.9996 34.9165Z" fill="#2D424D"/>
<path d="M39.9996 34.4879C36.4221 34.4879 33.5117 31.5775 33.5117 28C33.5117 24.4225 36.4221 21.5118 39.9996 21.5118C43.5771 21.5118 46.4875 24.4225 46.4875 28C46.4875 31.5775 43.5771 34.4879 39.9996 34.4879Z" fill="#253740"/>
<path d="M40.0005 33.231C42.8894 33.231 45.2314 30.889 45.2314 28C45.2314 25.1111 42.8894 22.7691 40.0005 22.7691C37.1115 22.7691 34.7695 25.1111 34.7695 28C34.7695 30.889 37.1115 33.231 40.0005 33.231Z" fill="#212225"/>
<path d="M40.0005 33.0167C37.2343 33.0167 34.9838 30.7663 34.9838 28C34.9838 25.2338 37.2343 22.9834 40.0005 22.9834C42.7667 22.9834 45.0171 25.2338 45.0171 28C45.0171 30.7663 42.7667 33.0167 40.0005 33.0167Z" fill="#212225"/>
<path d="M40.0005 32.8023C37.3525 32.8023 35.1981 30.6479 35.1981 28C35.1981 25.3521 37.3525 23.1976 40.0005 23.1976C42.6484 23.1976 44.8028 25.3521 44.8028 28C44.8028 30.6479 42.6484 32.8023 40.0005 32.8023Z" fill="#212225"/>
<path d="M40.0005 32.1595C37.707 32.1595 35.841 30.2935 35.841 28C35.841 25.7065 37.707 23.8405 40.0005 23.8405C42.294 23.8405 44.16 25.7065 44.16 28C44.16 30.2935 42.294 32.1595 40.0005 32.1595Z" fill="#4D4D4D"/>
<path d="M40.0005 31.731C37.9429 31.731 36.2695 30.057 36.2695 28C36.2695 25.9429 37.9435 24.2691 40.0005 24.2691C42.0574 24.2691 43.7314 25.9429 43.7314 28C43.7314 30.0572 42.058 31.731 40.0005 31.731Z" fill="#212225"/>
<path d="M39.9999 30.501C41.3813 30.501 42.5011 29.3812 42.5011 27.9999C42.5011 26.6185 41.3813 25.4987 39.9999 25.4987C38.6186 25.4987 37.4988 26.6185 37.4988 27.9999C37.4988 29.3812 38.6186 30.501 39.9999 30.501Z" fill="#212225"/>
<path d="M40.0002 29.8845C41.0411 29.8845 41.8849 29.0407 41.8849 27.9999C41.8849 26.959 41.0411 26.1152 40.0002 26.1152C38.9594 26.1152 38.1156 26.959 38.1156 27.9999C38.1156 29.0407 38.9594 29.8845 40.0002 29.8845Z" fill="#134D44"/>
<path d="M40.0001 28.8707C40.4809 28.8707 40.8707 28.4809 40.8707 28.0001C40.8707 27.5193 40.4809 27.1295 40.0001 27.1295C39.5193 27.1295 39.1295 27.5193 39.1295 28.0001C39.1295 28.4809 39.5193 28.8707 40.0001 28.8707Z" fill="#198058"/>
<path d="M39.1295 28C39.1295 28.4809 39.5195 28.8706 40.0003 28.8706V28H39.1295Z" fill="#70CCBD"/>
<path d="M40.8709 28.0001C40.8709 27.5192 40.4809 27.1295 40 27.1295V28.0001H40.8709Z" fill="#70CCBD"/>
<ellipse cx="50.2857" cy="17.7143" rx="3.42857" ry="3.42857" fill="url(#paint0_linear_311_2217)"/>
<rect x="0.5" y="0.5" width="136" height="55" rx="15.5" stroke="#DAE9F4"/>
<defs>
<linearGradient id="paint0_linear_311_2217" x1="47.3029" y1="14.6531" x2="54.1535" y2="15.261" gradientUnits="userSpaceOnUse">
<stop stop-color="#FE7757"/>
<stop offset="1" stop-color="#FC3143"/>
</linearGradient>
</defs>
</svg>
