<svg width="56" height="56" viewBox="0 0 56 56" fill="none" xmlns="http://www.w3.org/2000/svg">
<path fill-rule="evenodd" clip-rule="evenodd" d="M34.745 22.651C34.6829 22.7951 34.6001 22.7539 34.5174 22.7333C34.4346 22.7127 34.3105 22.6098 34.3726 22.8362C34.3726 22.8568 34.3312 22.898 34.3312 22.898C34.0002 22.7127 33.8761 23.0009 33.6692 23.145C33.5451 23.2273 33.3796 23.2479 33.2348 23.0833C33.5037 23.0833 33.6071 22.9186 33.6485 22.7127C33.6692 22.5686 33.7519 22.4451 33.8761 22.5069C34.145 22.651 34.4553 22.5892 34.745 22.651Z" fill="#4271B5"/>
<path fill-rule="evenodd" clip-rule="evenodd" d="M15.3399 49.7814C15.5054 49.7196 15.5675 49.5549 15.6709 49.452C15.7951 49.8431 15.6709 50.1107 15.3606 50.1519C15.2158 50.1725 15.1331 50.1313 15.1538 49.9666C15.1951 49.8019 15.3399 49.5961 14.9883 49.6373L14.9469 49.5549C15.0503 49.4726 15.0503 49.2873 15.1951 49.2462C15.2986 49.2256 15.2158 49.3491 15.2365 49.3491C15.5261 49.4726 15.2986 49.6579 15.3399 49.7814Z" fill="#4271B5"/>
<path fill-rule="evenodd" clip-rule="evenodd" d="M21.236 19.9132C21.1946 20.0573 21.3601 20.1602 21.2567 20.3661C21.0498 19.9544 20.7188 19.6045 20.8222 19.0898C20.9463 19.2545 21.0912 19.378 21.1532 19.5427C21.2153 19.6456 21.0498 19.8309 21.236 19.9132Z" fill="#4271B5"/>
<path fill-rule="evenodd" clip-rule="evenodd" d="M23.2012 45.6027C23.0771 45.2734 23.3667 45.1087 23.4702 44.8823C23.4909 44.8411 23.5943 44.8205 23.6357 44.8617C23.6977 44.9234 23.6977 45.0263 23.6564 45.0881C23.5115 45.2734 23.4288 45.4792 23.2012 45.6027Z" fill="#4271B5"/>
<path fill-rule="evenodd" clip-rule="evenodd" d="M21.8565 43.2561C21.7738 43.3796 21.7945 43.5031 21.6496 43.5443C21.6083 43.3796 21.3186 43.4207 21.3186 43.2149C21.3186 43.112 21.4014 43.0296 21.5048 43.0708C21.629 43.112 21.7738 43.1531 21.8565 43.2561Z" fill="#4271B5"/>
<path fill-rule="evenodd" clip-rule="evenodd" d="M25.932 39.7361C25.8493 40.0449 25.7045 40.2096 25.601 40.3742C25.539 40.4566 25.4562 40.5595 25.3321 40.4566C25.2494 40.3742 25.3321 40.2919 25.3942 40.2096C25.5597 40.0861 25.7252 39.942 25.932 39.7361Z" fill="#4271B5"/>
<path fill-rule="evenodd" clip-rule="evenodd" d="M31.5798 34.5282C31.5591 34.7752 31.4763 35.0017 31.2695 35.2693C31.1867 34.8782 31.4143 34.7135 31.5798 34.5282Z" fill="#4271B5"/>
<path fill-rule="evenodd" clip-rule="evenodd" d="M35.7586 23.2479C35.6552 23.2479 35.6138 23.1862 35.5931 23.1244C35.5518 23.0421 35.469 22.9392 35.5518 22.8362C35.6138 22.7539 35.6966 22.7539 35.7793 22.7745C35.8 22.7745 35.8828 22.7951 35.8207 22.8156C35.5724 22.9186 35.9241 23.1244 35.7586 23.2479Z" fill="#4271B5"/>
<path fill-rule="evenodd" clip-rule="evenodd" d="M18.5258 46.3438C18.4017 46.3438 18.2983 46.3438 18.319 46.1791C18.3397 46.035 18.4224 45.9938 18.5672 45.9938C18.7327 45.9938 18.712 46.0761 18.5258 46.3438Z" fill="#4271B5"/>
<path fill-rule="evenodd" clip-rule="evenodd" d="M20.8843 44.3265C20.9877 44.203 20.8636 43.9765 21.0705 43.9765C21.1739 43.9765 21.236 44.1618 21.2153 44.2441C21.1739 44.45 21.0084 44.2441 20.8843 44.3265Z" fill="#4271B5"/>
<path fill-rule="evenodd" clip-rule="evenodd" d="M20.9877 20.2837C21.0705 20.3661 21.236 20.3455 21.236 20.5102C21.236 20.5925 21.1532 20.6543 21.0498 20.6337C20.9463 20.6131 20.8843 20.5513 20.8843 20.4278C20.8843 20.3661 20.8843 20.2837 20.9877 20.2837Z" fill="#4271B5"/>
<path fill-rule="evenodd" clip-rule="evenodd" d="M34.6623 23.3303C34.6416 23.3508 34.6002 23.392 34.5795 23.4126C34.5588 23.392 34.5381 23.392 34.5174 23.3714C34.3933 23.3303 34.3313 23.2273 34.3313 23.0832C34.3313 23.0627 34.4347 23.0421 34.4761 23.0421C34.6623 23.0627 34.6623 23.1862 34.6623 23.3303Z" fill="#4271B5"/>
<path fill-rule="evenodd" clip-rule="evenodd" d="M37.7861 23.8243C37.5792 23.9478 37.4551 24.0507 37.3102 23.9272C37.2896 23.9066 37.3102 23.8037 37.3309 23.7625C37.4757 23.5979 37.5585 23.8037 37.7861 23.8243Z" fill="#4271B5"/>
<path fill-rule="evenodd" clip-rule="evenodd" d="M20.7601 47.3936C20.6773 47.373 20.5946 47.3112 20.636 47.2495C20.6773 47.1465 20.8015 47.1054 20.9256 47.1054C20.9877 47.1054 21.0704 47.1054 21.0497 47.1877C20.9877 47.3318 20.8428 47.3318 20.7601 47.3936Z" fill="#4271B5"/>
<path fill-rule="evenodd" clip-rule="evenodd" d="M21.6083 46.6731C21.6083 46.5908 21.5876 46.5084 21.6083 46.4673C21.691 46.3849 21.7945 46.3437 21.8979 46.282C21.8979 46.282 21.9393 46.3232 21.96 46.3643C21.9807 46.5084 21.8358 46.5084 21.7531 46.5702C21.7117 46.5908 21.6703 46.6113 21.6083 46.6731Z" fill="#4271B5"/>
<path fill-rule="evenodd" clip-rule="evenodd" d="M14.8021 49.9666C14.7607 50.0695 14.7607 50.0901 14.7607 50.0901C14.6159 50.0695 14.6573 50.3372 14.4918 50.2754C14.4504 50.2754 14.4297 50.1725 14.4297 50.1725C14.5331 50.1107 14.6366 50.049 14.8021 49.9666Z" fill="#4271B5"/>
<path fill-rule="evenodd" clip-rule="evenodd" d="M33.4623 22.5686C33.3175 22.4863 33.1727 22.5275 33.152 22.3628C33.152 22.3216 33.152 22.2599 33.2141 22.2599C33.3382 22.301 33.421 22.3834 33.4623 22.5686Z" fill="#4271B5"/>
<path fill-rule="evenodd" clip-rule="evenodd" d="M29.1593 21.4159C29.18 21.4159 29.2007 21.4159 29.2214 21.4159C29.3455 21.4159 29.4697 21.3953 29.4903 21.5394C29.4903 21.56 29.449 21.5806 29.4283 21.6012C29.3662 21.5394 29.1593 21.6217 29.1593 21.4159Z" fill="#4271B5"/>
<path fill-rule="evenodd" clip-rule="evenodd" d="M26.4285 20.8807C26.532 20.9013 26.6147 20.716 26.7388 20.8395C26.7595 20.8601 26.7388 20.9425 26.7182 20.963C26.594 21.0454 26.5113 20.9219 26.4285 20.8807Z" fill="#4271B5"/>
<path fill-rule="evenodd" clip-rule="evenodd" d="M29.7385 21.9305C29.5937 22.0952 29.4696 22.0952 29.3041 21.9305C29.4489 21.9305 29.573 21.9305 29.7385 21.9305Z" fill="#4271B5"/>
<path fill-rule="evenodd" clip-rule="evenodd" d="M17.2432 49.0403C17.3467 48.8551 17.4501 48.8756 17.5742 48.9168C17.5949 48.9168 17.5949 48.9991 17.5949 48.9991C17.4915 49.1021 17.388 48.9991 17.2432 49.0403Z" fill="#4271B5"/>
<path fill-rule="evenodd" clip-rule="evenodd" d="M32.7176 33.6225C32.9038 33.7872 32.8624 33.8695 32.821 33.9725C32.6555 33.9107 32.7589 33.8078 32.7176 33.6225Z" fill="#4271B5"/>
<path fill-rule="evenodd" clip-rule="evenodd" d="M32.9451 22.0746C32.9038 22.2187 32.8003 22.2187 32.6141 22.301C32.7176 22.0952 32.8003 22.054 32.9451 22.0746Z" fill="#4271B5"/>
<path fill-rule="evenodd" clip-rule="evenodd" d="M26.4492 21.1277C26.5734 21.0042 26.7182 21.0865 26.8423 21.0865C26.7182 21.1277 26.594 21.2101 26.4492 21.1277Z" fill="#4271B5"/>
<path fill-rule="evenodd" clip-rule="evenodd" d="M37.0206 23.886C37.0206 23.7008 37.0206 23.5979 37.0206 23.4332C37.0827 23.5979 37.1655 23.6802 37.0206 23.886Z" fill="#4271B5"/>
<path fill-rule="evenodd" clip-rule="evenodd" d="M36.2965 23.0009C36.0897 23.1244 36.0069 23.0421 35.8414 23.0009C36.0069 23.0009 36.0897 23.0009 36.2965 23.0009Z" fill="#4271B5"/>
<path d="M41.5712 5.9777C41.5712 5.91595 41.5299 5.85419 41.4678 5.87478C40.992 6.01887 40.5782 6.08062 40.0817 5.77186C39.8335 5.62777 39.3783 5.79244 39.0266 5.87478C38.5922 5.9777 38.1371 6.03946 37.7854 6.28647C37.5371 6.47173 37.2889 6.61582 36.9993 6.71874C36.8131 6.7805 36.6476 6.84225 36.6269 7.10985C36.6062 7.23336 36.4614 7.33628 36.2752 7.21277C36.1511 7.13043 35.9649 6.96576 35.8407 7.27453C35.7994 7.39803 35.6339 7.37745 35.5304 7.37745C35.096 7.37745 34.6822 7.39803 34.2685 7.62446C34.103 7.72739 33.8961 7.74797 33.7099 7.78914C33.6272 7.80972 33.5237 7.83031 33.5237 7.91265C33.503 8.28317 33.2134 8.30375 32.9445 8.34492C32.7583 8.38609 32.5514 8.38609 32.5721 8.67427C32.5721 8.83895 32.448 8.94187 32.2618 8.92129C32.1377 8.9007 31.9928 8.9007 31.9515 9.02421C31.9101 9.25064 31.7446 9.20947 31.5998 9.27122C31.3515 9.39473 31.0412 9.12713 30.793 9.4359C30.2965 10.0534 29.5931 10.3828 28.8483 10.6298C27.8967 10.9386 26.945 11.2268 26.1589 11.8855C26.0348 11.9884 25.952 12.0913 26.0969 12.1942C26.3451 12.3383 26.1589 12.4207 26.0762 12.5236C26.0348 12.6059 25.8693 12.5647 25.89 12.7088C25.952 12.7706 26.0762 12.6883 26.1175 12.7912C25.6417 12.8323 25.6417 12.8323 25.559 12.503C25.3728 12.4824 25.4142 12.8118 25.2487 12.7706C24.9383 12.7088 25.0832 12.9764 25.0004 13.0794C24.959 13.1411 24.9177 13.1617 24.8763 13.0382C24.8142 12.8529 24.6487 12.9764 24.5453 12.9559C24.4832 12.9559 24.4832 12.9764 24.4625 13.0382C24.4212 13.3264 24.0902 13.6763 23.8626 13.6146C23.4695 13.5322 23.3661 13.8204 23.2626 14.0057C23.0351 14.4174 22.8075 14.8085 22.311 15.0143C22.5593 15.0143 22.642 15.0555 22.5593 15.3025C22.4765 15.5701 22.2076 15.6524 22.0628 15.7965C21.5249 16.2905 21.1525 16.8257 21.0904 17.5462C21.0904 17.6491 21.1732 17.7932 20.9663 17.8138C20.656 17.855 20.7181 18.0196 20.8422 18.2461C20.9249 18.3902 21.1111 18.4931 21.0491 18.6989C20.987 18.9459 21.1111 18.8842 21.2559 18.8224C21.318 18.8019 21.3594 18.7195 21.4421 18.7813C21.5042 19.0695 21.5663 19.3576 21.6283 19.6458C21.649 19.7076 21.7938 19.7487 21.6697 19.8311C21.6076 19.8928 21.5249 19.8723 21.4421 19.8311C21.3801 19.8105 21.2559 19.6252 21.2353 19.8723C21.5249 20.0987 21.5456 20.4486 21.5456 20.7368C21.5456 20.8809 21.6904 21.1073 21.5456 21.1691C21.2973 21.272 21.4835 21.3955 21.5249 21.4367C21.6283 21.5808 21.7111 21.7454 21.9179 21.766C21.98 21.766 22.0214 21.7454 22.0007 21.6837C21.9386 21.4984 22.0214 21.519 22.1041 21.6219C22.2696 21.7866 22.3938 21.9719 22.5593 22.1571C22.4145 22.2189 22.2696 22.1365 22.1455 22.2395C22.1662 22.2806 22.1869 22.3218 22.2076 22.3424C22.2283 22.363 22.2696 22.4041 22.2903 22.3836C22.7248 22.2601 22.7868 22.5688 22.8489 22.8776C22.8696 22.9393 22.8489 23.0217 22.9523 23.0423C23.2626 23.104 23.4281 23.3922 23.635 23.5775C23.8626 23.7833 24.0488 24.0097 24.3591 24.1127C24.7728 24.2362 25.1866 24.4008 25.6004 24.5655C25.8072 24.6479 26.0141 24.7714 26.2624 24.7508C26.4899 24.7302 26.6761 24.689 26.8416 24.9155C26.9244 25.039 27.1105 24.9978 27.2554 24.8743C27.3588 24.7919 27.5036 24.6684 27.6071 24.7714C27.7726 24.9566 27.9794 24.936 28.1656 24.9978C29.4689 25.4301 30.7723 25.8212 32.0963 26.1917C33.0272 26.4387 33.9995 26.521 34.8477 27.0768C35.2408 27.3444 35.6959 27.5091 36.0683 27.7973C36.5855 28.1678 36.6476 28.3737 36.4614 28.8265C36.2131 29.4235 35.9028 29.9587 35.4891 30.4733C35.2615 30.7615 34.8064 31.0291 35.2615 31.4819C35.3649 31.5848 35.2201 31.6466 35.1581 31.6878C35.0753 31.7495 35.0546 31.6466 35.0132 31.6054C34.8684 31.5025 34.9098 31.379 34.9305 31.2349C34.7443 31.6672 34.1444 31.7495 34.0616 32.2847C34.1444 32.2847 34.2478 32.3053 34.3719 32.3053C34.2064 32.6141 34.0202 32.3259 33.8754 32.3465C33.6892 32.3671 33.8134 32.7787 33.4824 32.717C33.3375 32.6964 33.2341 32.7787 33.1307 32.8611C33.0479 32.9228 33.0065 33.0052 33.0272 33.1081C33.1927 33.6227 33.0065 34.0961 32.8824 34.5696C32.8617 34.6519 32.8617 34.7549 32.7583 34.7343C32.6548 34.7137 32.6548 34.5902 32.6135 34.5078C32.5928 34.4461 32.7583 34.4049 32.6548 34.3432C32.5721 34.2814 32.51 34.3843 32.448 34.4255C32.2204 34.5902 32.117 34.8989 31.786 34.9401C31.7653 34.9401 31.7239 35.0019 31.7239 35.0225C31.7239 35.1048 31.786 35.043 31.8273 35.043C31.9308 35.0225 31.9928 35.0842 31.9928 35.1665C31.9928 35.2283 31.9308 35.2489 31.8894 35.2283C31.8067 35.2077 31.6411 35.3106 31.6205 35.1665C31.5791 34.8784 31.4136 35.0019 31.3929 35.1254C31.3308 35.3518 31.186 35.2901 31.0412 35.3106C30.8964 35.3106 30.6895 35.2077 30.6275 35.4753C30.6068 35.5371 30.524 35.5165 30.462 35.5165C30.2551 35.5577 30.0482 35.5988 29.862 35.6606C29.531 35.7635 29.4896 35.887 29.6551 36.2164C29.7793 36.4634 29.7172 36.628 29.4483 36.6486C29.2828 36.6692 29.2828 36.731 29.2621 36.8751C29.2207 37.1015 29.2414 37.4514 28.9724 37.5543C28.4552 37.719 28.2277 38.1101 28.1242 38.5424C28.0001 38.9953 27.6484 39.0364 27.3381 39.1599C27.2967 39.1805 27.2554 39.2011 27.214 39.1599C27.0071 39.0364 26.7382 39.3452 26.552 39.0776C26.5313 39.057 26.4692 39.0982 26.4485 39.1599C26.3865 39.304 26.2624 39.4687 26.3244 39.6128C26.3865 39.7775 26.3037 39.7981 26.2003 39.8804C25.8279 40.0862 25.5383 40.3744 25.4555 40.8067C25.4142 40.9714 25.3728 41.0331 25.1866 40.9508C25.0625 40.889 24.897 40.9096 24.8763 41.0949C24.8349 41.3213 24.6694 41.3213 24.5246 41.2801C24.235 41.1978 24.2143 41.486 24.0488 41.5889C24.1522 41.7124 24.0902 41.733 23.966 41.8153C23.4488 42.1241 22.7661 42.1035 22.3938 42.6593C22.3731 42.7005 22.2903 42.7005 22.2489 42.7211C22.0007 42.824 21.8973 43.2357 22.0421 43.4621C22.1662 43.2974 22.1455 43.0916 22.1662 42.8652C22.2903 42.9475 22.5386 42.8857 22.4765 43.0916C22.4351 43.2563 22.4351 43.5444 22.2076 43.5444C21.8766 43.5444 21.5042 43.7091 21.2146 43.4004C21.1525 43.3386 21.0904 43.318 21.0284 43.4004C20.987 43.4621 20.987 43.5444 21.0698 43.5856C21.1939 43.6885 21.318 43.8326 21.5249 43.7915C21.6076 43.7709 21.6904 43.812 21.7111 43.915C21.7318 44.0179 21.6283 44.0796 21.5663 44.1208C21.3801 44.2032 21.5249 43.8944 21.3594 43.9355C21.0077 44.2855 21.4421 44.6354 21.3387 44.9854C21.1732 44.9442 21.1111 44.8207 21.0491 44.7178C21.0077 44.656 20.9043 44.5325 20.8629 44.5737C20.7181 44.7589 20.5319 44.6354 20.3664 44.6972C20.3871 44.8413 20.3457 44.9854 20.2009 45.0059C20.0767 45.0265 19.9319 44.9854 19.8078 44.9442C19.7457 44.9236 19.7457 44.8207 19.8078 44.8207C19.9733 44.8001 19.8906 44.4296 20.1181 44.5942C20.2009 44.656 20.2629 44.7178 20.3664 44.7178C20.325 44.656 20.2836 44.5943 20.2422 44.5325C20.2009 44.4707 20.4077 44.3061 20.2422 44.3267C20.0767 44.3472 19.7664 44.3061 19.7664 44.409C19.7457 44.6766 19.4561 44.6972 19.4354 44.903C19.4975 44.9442 19.663 44.8207 19.6009 45.0265C19.5596 45.1912 19.5389 45.2118 19.7251 45.1912C19.7871 45.1912 19.8285 45.15 19.8699 45.2324C19.9112 45.3147 19.8285 45.3353 19.7871 45.3559C19.6837 45.4176 19.5596 45.6029 19.4354 45.3765C19.4147 45.3353 19.2906 45.3353 19.2492 45.4176C19.1665 45.6852 18.9182 45.8087 18.6493 45.9322C19.1458 45.9734 19.1458 45.9734 18.9182 46.3645C18.8975 46.3851 18.8355 46.4263 18.8975 46.4674C19.0424 46.591 18.9596 46.6115 18.8355 46.6115C18.732 46.6115 18.6286 46.6115 18.5252 46.6115C18.5045 46.488 18.6286 46.3439 18.4838 46.2616C18.401 46.4469 18.3183 46.6321 18.2355 46.8174C18.1942 46.8997 18.1735 47.0026 18.0494 46.9203C17.9045 46.8174 17.7804 46.9409 17.6356 47.0232C17.6563 46.8791 17.7804 46.7556 17.6563 46.7145C17.5528 46.6733 17.4494 46.7556 17.408 46.8997C17.3873 46.9409 17.3667 46.9615 17.3667 47.0026C17.3667 47.1467 17.2425 47.1879 17.1598 47.1879C17.015 47.1879 17.1391 47.0026 17.015 46.9409C16.9736 47.1056 16.6012 47.0644 16.8495 47.4143C16.9943 47.5996 16.684 47.826 16.3737 47.7437C16.1875 47.6819 16.0013 47.6408 15.9599 47.8878C15.9185 48.073 15.8771 48.2789 16.084 48.4641C16.2082 48.1554 16.4771 48.0525 16.684 47.8672C16.746 48.073 16.9943 48.2171 16.7874 48.4641C16.7253 48.5259 16.7047 48.6494 16.5805 48.5877C16.4771 48.5465 16.4564 48.4436 16.5185 48.3406C16.5598 48.2583 16.5805 48.176 16.4771 48.0936C16.4564 48.1348 16.4357 48.176 16.4357 48.1965C16.415 48.423 16.415 48.6494 16.415 48.8553C16.415 49.0199 16.2909 49.0199 16.2495 49.0611C16.1461 49.1228 16.1668 48.9993 16.1668 48.9376C16.1668 48.7935 16.0633 48.7935 15.9806 48.8141C15.8565 48.8347 15.8771 48.9582 15.8978 48.9993C15.9806 49.1846 15.9185 49.3287 15.8151 49.4728C16.0013 49.5551 16.1254 49.4728 16.2082 49.3699C16.353 49.2052 16.4978 49.411 16.6426 49.3493C16.6633 49.3493 16.6633 49.3287 16.6633 49.3287C16.6426 49.0817 16.8495 49.0405 16.9943 48.9376C17.2632 48.7729 16.8288 48.6288 16.9943 48.4847C17.015 48.4641 17.0357 48.4641 17.0563 48.4641C17.1598 48.5053 17.1391 48.7112 17.3046 48.6494C17.408 48.6082 17.4287 48.4847 17.3873 48.4024C17.2012 48.073 17.4701 48.0319 17.6563 47.8672C17.677 48.0525 17.677 48.1965 17.6977 48.3818C17.739 48.3406 17.7804 48.3406 17.8011 48.2995C17.9459 48.1142 17.9459 47.7231 18.3597 47.8672C18.401 47.8878 18.5459 47.7849 18.4838 47.6408C18.4631 47.5996 18.401 47.3114 18.6907 47.4555C18.7734 47.4967 18.8562 47.1467 19.0217 47.3937C19.0424 47.3732 19.1044 47.3526 19.1044 47.332C19.1044 47.0438 19.7251 47.2085 19.4975 46.7556L19.5389 46.7145C19.8492 46.8586 19.9526 46.5292 20.1388 46.4263C20.2836 46.6527 19.9526 46.6939 20.0147 46.9203C20.1388 46.8174 20.2629 46.7556 20.4077 46.8791C20.5112 46.9615 20.6146 46.838 20.5939 46.7556C20.4284 46.2616 21.0904 46.241 21.0904 45.8499C21.1111 45.8499 21.1525 45.8499 21.1525 45.8705C21.2766 46.0146 21.5042 45.7058 21.6283 45.9734C21.649 46.0352 21.7938 45.9734 21.8145 45.8087C21.8352 45.5617 22.0834 45.5411 22.2489 45.5C22.3938 45.4588 22.58 45.4382 22.7455 45.5206C22.8696 45.5823 22.8903 45.5 22.8903 45.4176C22.8903 45.3353 22.8903 45.2324 22.8903 45.1295C22.7868 45.0677 22.7248 44.8207 22.642 44.9442C22.5179 45.0883 22.2283 45.0677 22.2489 45.3353C22.1248 45.2735 22.0214 45.2118 21.8973 45.1706C22.1455 44.9648 22.4351 44.8413 22.7248 44.8001C23.0144 44.7589 22.8696 44.9854 22.8903 45.1089V45.1295C23.0558 45.1089 23.1799 45.0059 23.1799 44.8413C23.1799 44.6766 23.1592 44.4913 23.4281 44.6148C23.4902 44.6354 23.635 44.6148 23.635 44.4707C23.635 44.2443 23.7798 44.1414 23.9867 44.1414C24.1522 44.1414 24.2143 44.0796 24.1729 43.9355C24.0902 43.6062 24.3177 43.7503 24.4832 43.7297C24.3384 43.9973 24.235 44.2443 24.0074 44.409C23.9246 44.4913 23.8626 44.5943 23.8212 44.6972C23.8005 44.7589 23.8005 44.8824 23.9453 44.8207C24.1315 44.7178 24.3798 44.656 24.5246 44.4913C24.7935 44.1826 25.1245 43.9561 25.4348 43.6885C25.7865 43.3798 26.3037 43.1328 26.3658 42.6387C26.4485 42.1447 26.7382 42.1859 27.0692 42.1447C27.1519 42.1241 27.214 42.0829 27.2967 42.0624C27.0899 42.0624 26.9657 41.9389 26.9037 41.7536C26.883 41.7124 26.9244 41.6507 26.945 41.6301C27.0692 41.5889 27.0485 41.8153 27.1933 41.7742C27.214 41.5066 27.214 41.5066 27.545 41.5272C27.4829 41.6095 27.3588 41.6918 27.5243 41.7948C27.6277 41.8565 27.7312 41.9183 27.8553 41.8359C27.9587 41.7536 28.0415 41.7742 28.0829 41.9183C28.4346 41.6712 28.3311 41.1978 28.5587 40.889C28.8483 41.1772 28.8483 41.1566 29.0552 40.7861C29.1379 40.642 29.1173 40.4568 29.3034 40.3538C30.0482 39.9216 30.7516 39.4687 31.5584 39.1599C31.7446 39.0776 31.9515 39.0159 31.7653 38.7483C31.7239 38.7071 31.7446 38.563 31.848 38.6042C32.2618 38.7688 32.4893 38.4189 32.779 38.2542C33.3375 37.8837 33.7513 37.3691 34.1444 36.8545C34.2271 36.7516 34.3305 36.6075 34.496 36.731C34.7236 36.9162 34.8477 36.7721 34.9926 36.6075C35.2615 36.2987 35.2408 35.8664 35.5097 35.5782C35.6546 35.64 35.758 36.134 35.9442 35.5988C35.9442 35.5782 35.9856 35.5576 36.0269 35.5371C36.7303 35.0842 37.1648 34.4667 37.1441 33.6227C37.1441 33.5198 37.1441 33.4374 37.2268 33.3757C37.2682 33.3345 37.3303 33.3551 37.3509 33.3963C37.3923 33.4786 37.4958 33.6227 37.413 33.6845C37.1234 33.9109 37.4958 34.0756 37.4337 34.2814C37.5164 34.0962 37.4751 33.808 37.7233 33.7874C38.1991 33.7668 38.1785 33.3963 38.2405 33.1287C38.2819 32.8817 38.4681 32.6141 38.6956 32.6758C38.8611 32.717 38.8405 32.6346 38.8818 32.5523C39.1715 32.12 39.4404 31.6672 39.7093 31.2349C40.33 30.1851 40.5989 29.0324 40.4748 27.8179C40.4748 27.7561 40.4748 27.6738 40.392 27.6944C39.9576 27.7973 40.2886 27.4474 40.1852 27.365C40.3713 27.1592 40.2265 26.9739 40.1231 26.7886C39.9162 26.4387 39.6059 26.2329 39.2749 26.027C39.1715 25.9653 39.0473 25.8829 39.1301 25.7594C39.2956 25.4712 39.2749 25.1419 39.337 24.8331C39.3577 24.7714 39.3783 24.6479 39.2542 24.6479C39.1508 24.6273 39.0887 24.689 39.0473 24.792C39.006 24.936 38.9232 25.0801 38.8611 25.2036C38.8198 25.286 38.7991 25.4095 38.6956 25.3889C38.5715 25.3683 38.5095 25.286 38.4888 25.1419C38.4681 24.9772 38.406 24.8125 38.3646 24.6479C38.4888 24.689 38.5715 24.7302 38.6543 24.8125C38.6956 24.8537 38.7991 24.8743 38.8405 24.792C38.9646 24.5655 38.6129 24.3185 38.8198 24.0921C38.6129 24.0509 38.3853 24.2979 38.2198 24.0097C38.2198 24.0097 38.1785 24.0303 38.1578 24.0303C37.8888 24.2568 37.8888 24.2773 37.6199 24.0715C37.5371 24.0097 37.4751 23.9686 37.3716 24.0303C37.2475 24.0921 37.1441 24.0509 37.0199 23.9892C36.7717 23.8656 36.7717 23.5363 36.4821 23.454C36.6269 23.3716 36.751 23.5363 36.7924 23.3716C36.8131 23.2687 36.6889 23.1658 36.6062 23.1452C36.4407 23.104 36.3786 23.2687 36.3166 23.3716C36.1097 23.8039 35.6132 23.8862 35.2408 23.5569C35.3236 23.5157 35.3856 23.454 35.4477 23.454C35.5718 23.454 35.6132 23.351 35.6132 23.2687C35.6132 23.1452 35.4891 23.1658 35.3856 23.1658C35.1374 23.1246 34.9305 23.2275 34.7236 23.3099C34.6822 23.3305 34.6615 23.351 34.6409 23.3922C34.496 23.5363 34.3512 23.6186 34.1237 23.4951C34.0409 23.454 33.8961 23.4334 33.8134 23.4745C33.5237 23.598 33.3582 23.4951 33.2134 23.2275C33.1514 23.1246 33.0272 23.0423 33.1927 22.9188C33.2962 22.857 33.2341 22.8158 33.1514 22.7953C33.0893 22.7747 32.8824 22.7129 32.8203 22.7335C32.6962 22.7747 32.5721 22.7953 32.4273 22.7541C32.2825 22.7129 32.0963 22.6306 31.9515 22.9393C31.848 23.1452 31.4343 23.0629 31.1446 22.9188C31.5377 22.7747 31.9101 22.5688 32.3238 22.6512C32.448 22.6717 32.4893 22.61 32.4893 22.4865C32.4893 22.363 32.4066 22.363 32.3238 22.3836C32.1997 22.3836 32.0963 22.5071 31.9722 22.4247C32.0549 22.363 32.1377 22.3424 32.2204 22.3012C32.3238 22.2601 32.4893 22.2395 32.51 22.0748C32.51 22.0542 32.4893 21.9925 32.4893 21.9719C32.3445 21.9513 32.2411 22.0336 32.1583 22.116C32.0342 22.3012 31.8687 22.1983 31.7446 22.1365C31.7032 22.116 31.7446 21.9513 31.7239 21.8484C31.7032 21.7866 31.8894 21.8072 31.7653 21.7249C31.7239 21.7043 31.6205 21.6837 31.5791 21.766C31.5584 21.8278 31.5584 21.8895 31.5584 21.9719C31.2895 21.6425 31.2688 21.6425 31.0205 21.9307C30.9378 22.0336 30.855 22.1777 30.6688 22.116C30.6688 22.0336 30.8343 21.9719 30.7516 21.8895C30.6895 21.8484 30.524 21.8278 30.4826 21.8689C30.3171 22.0542 30.0068 22.0954 29.9241 22.363C29.9034 22.4659 29.862 22.4865 29.7586 22.5071C29.5517 22.5482 29.3655 22.3218 29.1586 22.4865C28.9104 22.0954 28.7449 22.5071 28.7035 22.5894C28.6001 22.7953 28.6001 22.5894 28.5794 22.5688C28.4759 22.3836 28.6001 22.2395 28.7242 22.1571C28.8483 22.0748 28.8276 21.9925 28.8069 21.8895C28.7863 21.8484 28.7449 21.8072 28.7035 21.8072C28.5794 21.8072 28.5794 21.9307 28.538 22.013C28.4759 22.1571 28.4759 22.3012 28.3518 22.4247C28.207 22.1983 27.8967 22.1983 27.7105 22.0336C27.8346 21.8484 27.9587 22.0542 28.0622 22.013C28.1449 21.9925 28.2277 21.9719 28.2277 21.8689C28.2277 21.766 28.1242 21.8072 28.0622 21.8072C27.9381 21.8072 27.7932 21.8072 27.6277 21.8072C27.7312 21.6631 27.8346 21.6425 27.9587 21.6631C27.9381 21.4984 28.0001 21.3543 28.0622 21.1691C28.1242 21.3749 28.1036 21.519 27.9587 21.6425V21.6631C28.1242 21.8278 28.2484 21.6631 28.3932 21.6219C28.4966 21.6013 28.6001 21.4367 28.6828 21.5808C28.7656 21.7249 28.8069 21.6837 28.8897 21.6013C28.9724 21.519 29.0552 21.4573 29.1379 21.3749C29.0345 20.8603 28.869 21.3543 28.7449 21.3338C28.6828 20.9426 28.3932 21.0044 28.1036 21.0456C28.0208 20.9426 28.2484 20.9632 28.1656 20.8603C28.1036 20.7986 28.0622 20.7986 27.9794 20.8397C27.8553 20.9221 27.7519 20.8191 27.6484 20.7574C27.5243 20.6956 27.3381 20.6956 27.3174 20.7368C27.2761 21.0456 26.9037 20.9838 26.8002 21.2102C26.7589 21.272 26.6968 21.3749 26.5727 21.3338C26.4485 21.272 26.4072 21.1897 26.4072 21.0662C26.0762 21.2102 25.7452 21.1279 25.4142 21.0662C25.3314 21.0456 25.1866 21.1073 25.2073 20.9426C25.228 20.8397 25.1038 20.675 25.3314 20.6339C25.4969 20.5927 25.5797 20.4486 25.6831 20.3045C25.7038 20.3457 25.7245 20.3869 25.7659 20.428C25.8279 20.4898 25.89 20.6339 25.9727 20.531C26.0762 20.4486 25.9314 20.3869 25.89 20.3251C25.6831 20.0163 25.4762 20.2016 25.3107 20.3457C25.1866 20.4486 25.1038 20.4692 25.0211 20.3869C24.959 20.3045 25.0211 20.2016 25.1245 20.1604C25.2073 20.1193 25.29 20.0781 25.2693 19.9958C25.2487 19.8928 25.1038 19.9752 25.0625 19.9546C24.897 19.8517 24.5867 19.9134 24.6073 19.687C24.6487 19.2959 24.5867 19.09 24.0695 19.1724C24.2557 19.0489 24.4212 19.1518 24.5246 19.0283C24.3591 18.9254 24.4625 18.6783 24.3591 18.4931C24.1522 18.1226 24.5039 18.1843 24.6901 18.1432C24.7108 18.1432 24.7315 18.102 24.7315 18.0814C24.7728 17.6285 25.2073 17.4021 25.3935 17.0316C25.4762 16.8669 25.621 16.6817 25.3314 16.5376C25.4555 16.517 25.559 16.517 25.6417 16.4964C26.0555 16.3523 26.3658 16.0641 26.5934 15.673C26.6761 15.5083 26.8623 15.3231 26.9864 15.426C27.1312 15.5495 27.214 15.4877 27.2761 15.426C27.6691 15.1378 28.0622 14.8908 28.5173 14.7055C28.9104 14.5409 29.1173 14.1292 29.4069 13.8204C29.4896 13.8822 29.3448 14.1086 29.5724 14.0057C29.8413 13.8822 30.1723 13.7586 30.2965 13.4911C30.4206 13.1823 30.793 13.3058 30.9378 13.0588C30.9378 13.0382 31.0619 13.0588 31.0619 13.0794C31.124 13.2235 31.2067 13.1411 31.3101 13.1411C31.786 13.1205 31.9515 12.75 32.1583 12.4207C32.179 12.1736 32.3652 12.0501 32.51 11.906C32.5514 11.8855 32.6342 11.8649 32.6755 11.8855C32.7376 11.906 32.7376 11.9884 32.7169 12.0501C32.5928 12.256 32.3652 12.3177 32.179 12.4412C32.179 12.4412 32.179 12.4412 32.1583 12.4618C32.179 12.503 32.0549 12.6265 32.2618 12.6265C32.4687 12.6265 32.5721 12.6265 32.6755 12.4412C32.7376 12.3383 32.8617 12.1119 32.9445 12.4412C32.9858 12.5853 33.0686 12.5236 33.11 12.4618C33.2341 12.256 33.3789 11.9884 33.2548 11.7825C33.11 11.5561 33.2755 11.5355 33.3789 11.4944C33.5444 11.4326 33.7513 11.3914 33.8547 11.2268C33.7513 11.1444 33.6065 11.2268 33.4824 11.1032C33.772 10.9592 33.8134 10.6916 33.8754 10.424C33.8961 10.3622 33.834 10.1564 34.0202 10.2181C34.1857 10.2593 34.0616 10.4034 34.0409 10.4857C33.9789 10.671 33.9168 10.8768 34.103 10.9797C34.2685 11.0827 34.3512 11.2062 34.3512 11.3914C34.7236 11.3503 34.765 10.9386 35.0132 10.8356C35.5097 10.6504 35.6339 10.0329 36.1717 9.90934C36.1924 9.90934 36.2131 9.88876 36.2338 9.88876C36.3579 9.60058 36.3579 9.60058 36.6062 9.80642C36.751 9.39473 36.8751 9.1683 37.4958 9.25064C37.5992 9.27122 37.6199 9.23006 37.6406 9.1683C37.7647 8.92129 37.9716 8.69486 38.0336 8.42726C38.1164 8.11849 38.2405 8.22141 38.406 8.30375C38.4888 8.34492 38.4888 8.61252 38.6336 8.40668C38.7163 8.28317 38.737 8.11849 38.6129 7.99498C38.5715 7.95382 38.5095 7.93323 38.4681 7.89206C38.4267 7.83031 38.3026 7.80972 38.3646 7.7068C38.406 7.62446 38.4681 7.54213 38.5922 7.56271C38.7163 7.58329 38.6543 7.68622 38.675 7.76855C38.7163 8.01557 38.9439 8.03615 39.0887 8.03615C39.2542 8.03615 39.1508 7.83031 39.1715 7.7068C39.1715 7.54213 39.006 7.37745 39.2128 7.25394C39.3577 7.33628 39.1094 7.58329 39.3783 7.62446C39.6059 7.64505 39.668 7.48037 39.7093 7.29511C39.73 7.21277 39.7714 7.13043 39.8128 7.0481C39.8335 7.02751 39.8128 6.88342 39.8955 7.00693C39.9576 7.08927 40.061 7.15102 40.1231 7.13043C40.2265 7.06868 40.1852 6.98634 40.0817 6.92459C40.0197 6.88342 40.1024 6.88342 40.1231 6.88342C40.3507 6.82167 40.5162 6.59524 40.7437 6.57465C41.0333 6.55407 41.1989 6.32764 41.4471 6.2453C41.5919 6.10121 41.5712 6.03946 41.5712 5.9777ZM18.1321 47.4143C18.0287 47.5378 17.9045 47.5996 17.7184 47.5996C17.8632 47.5584 17.8839 47.3732 17.9873 47.2908C18.0287 47.2497 18.0494 47.1879 18.1321 47.2497C18.1735 47.2908 18.1942 47.3526 18.1321 47.4143ZM19.7251 46.591C19.7044 46.6115 19.6423 46.6115 19.6216 46.591C19.5802 46.4263 19.6009 46.2204 19.4147 46.1381C19.4768 46.0352 19.4768 45.8911 19.6423 45.8087C19.663 46.0558 19.6837 46.2616 19.7664 46.4674C19.8078 46.5292 19.7457 46.5704 19.7251 46.591ZM23.6557 44.0796C23.5523 44.1002 23.5936 44.0179 23.5936 43.9767C23.5936 43.915 23.5936 43.8532 23.6764 43.8738C23.7178 43.8738 23.7385 43.9561 23.7798 43.9973C23.7798 44.0796 23.6971 44.0796 23.6557 44.0796ZM29.4483 37.9249C29.3448 38.0484 29.2828 37.7808 29.1793 37.6984C29.4069 37.5749 29.6551 37.5749 29.9654 37.6161C29.7586 37.7602 29.5931 37.7808 29.4483 37.9249ZM30.2551 37.1015C30.0068 37.225 30.0068 37.225 29.8827 37.4514C29.6344 37.2456 29.7379 37.0809 29.9654 36.9986C30.2344 36.8956 30.2551 36.6898 30.2344 36.4634C30.193 36.1958 30.2758 35.9488 30.524 35.7635C30.2758 35.9899 30.5861 36.1752 30.6068 36.381C30.6275 36.5869 30.462 36.9986 30.2551 37.1015ZM30.8343 36.381C30.7516 36.2369 30.8964 36.2369 30.9998 36.2164C30.9585 36.2781 30.8964 36.3193 30.8343 36.381ZM30.4413 23.0011C30.462 22.9599 30.462 22.8982 30.4826 22.8158C30.6481 22.8776 30.793 22.9188 30.9378 23.0011C30.8136 23.0629 30.7309 23.1246 30.6481 23.1658C30.5654 23.2069 30.524 23.3922 30.3999 23.2893C30.3378 23.2275 30.3792 23.104 30.4413 23.0011ZM30.0689 22.7541C30.1723 22.7953 30.2551 22.857 30.2137 22.9393C30.1516 23.0628 30.1723 23.1658 30.1516 23.2893C29.9861 23.2481 29.9241 23.104 29.8827 22.9599C29.862 22.8776 30.0068 22.8158 30.0689 22.7541ZM30.0689 23.4334C29.7172 23.6392 29.4896 23.5157 29.2621 23.3716C29.3862 23.3099 29.5103 23.351 29.6758 23.3922C29.5724 23.1864 29.3655 23.0629 29.2207 23.1658C28.9724 23.351 29.0552 23.104 28.9311 23.0217C29.2414 22.9805 29.4483 23.1246 29.6551 23.1246C29.9654 23.104 29.7586 23.454 30.0689 23.4334ZM29.7172 22.857C29.7172 22.8982 29.7172 22.9188 29.6965 22.9599C29.5724 22.9393 29.4483 22.8982 29.2414 22.857C29.4689 22.8364 29.5931 22.7953 29.7172 22.857ZM29.1793 22.6717C29.2621 22.7747 29.1379 22.7335 29.0966 22.7541C29.0552 22.7541 29.0345 22.7541 28.9104 22.7335C29.0552 22.7129 29.0966 22.5894 29.1793 22.6717ZM27.9794 22.9805C27.8967 22.9805 27.8346 22.9393 27.8139 22.8776C27.8139 22.8364 27.8553 22.7747 27.9381 22.7747C28.0001 22.7953 28.0415 22.8364 28.0622 22.8982C28.0829 22.9599 28.0415 22.9599 27.9794 22.9805ZM28.1449 22.6512C28.1656 22.6512 28.1656 22.6512 28.1863 22.6512C28.1863 22.6512 28.1656 22.6512 28.1449 22.6512C28.0415 22.6512 27.8346 22.5071 27.7312 22.8158C27.7312 22.116 28.0415 22.5894 28.1449 22.6512ZM27.6071 21.025C27.6898 21.025 27.7312 21.0662 27.7312 21.1485C27.7312 21.2514 27.6898 21.3543 27.5864 21.3338C27.5243 21.3338 27.4209 21.2514 27.4209 21.1897C27.4002 21.0662 27.5243 21.0662 27.6071 21.025ZM24.7728 13.594C24.7315 13.594 24.6487 13.594 24.6694 13.5322C24.7108 13.4293 24.7728 13.347 24.8556 13.2646C24.8556 13.2646 24.9383 13.3058 24.9797 13.3264C24.897 13.4499 24.9177 13.594 24.7728 13.594ZM26.5106 12.5647C26.4279 12.5853 26.3865 12.5442 26.4485 12.4618C26.4692 12.4412 26.4899 12.4001 26.552 12.2971C26.5106 12.4412 26.5313 12.5442 26.5106 12.5647ZM37.4958 8.83895C37.4544 8.85953 37.3923 8.83895 37.3303 8.81837C37.3509 8.73603 37.3716 8.6331 37.4958 8.57135C37.4544 8.67427 37.6199 8.75661 37.4958 8.83895Z" fill="#4271B5"/>
</svg>
