<svg width="56" height="56" viewBox="0 0 56 56" fill="none" xmlns="http://www.w3.org/2000/svg">
<rect x="0.5" y="0.5" width="55" height="55" rx="15.5" fill="white"/>
<path d="M28 14.876C26.7021 14.876 25.4333 15.2609 24.3541 15.982C23.2749 16.7031 22.4337 17.728 21.937 18.9271C21.4403 20.1263 21.3104 21.4458 21.5636 22.7188C21.8168 23.9918 22.4418 25.1611 23.3596 26.0789C24.2774 26.9966 25.4467 27.6217 26.7197 27.8749C27.9927 28.1281 29.3122 27.9981 30.5114 27.5014C31.7105 27.0047 32.7354 26.1636 33.4565 25.0844C34.1776 24.0052 34.5625 22.7364 34.5625 21.4385C34.5625 19.698 33.8711 18.0288 32.6404 16.7981C31.4097 15.5674 29.7405 14.876 28 14.876ZM28 26.126C27.0729 26.126 26.1666 25.8511 25.3958 25.336C24.6249 24.8209 24.0241 24.0888 23.6693 23.2323C23.3145 22.3758 23.2217 21.4333 23.4026 20.524C23.5834 19.6147 24.0299 18.7795 24.6854 18.1239C25.341 17.4684 26.1762 17.0219 27.0855 16.841C27.9948 16.6602 28.9373 16.753 29.7938 17.1078C30.6504 17.4626 31.3824 18.0634 31.8975 18.8342C32.4126 19.6051 32.6875 20.5114 32.6875 21.4385C32.6875 22.054 32.5663 22.6636 32.3307 23.2323C32.0951 23.801 31.7498 24.3178 31.3146 24.753C30.8793 25.1883 30.3625 25.5336 29.7938 25.7692C29.2251 26.0047 28.6156 26.126 28 26.126Z" fill="#6D7784"/>
<path d="M32.8469 29.8749H23.1531C20.9584 29.8774 18.8543 30.7504 17.3023 32.3023C15.7504 33.8542 14.8775 35.9583 14.875 38.1531C14.875 38.9413 15.1881 39.6972 15.7454 40.2545C16.3028 40.8118 17.0587 41.1249 17.8469 41.1249H38.1531C38.9413 41.1249 39.6972 40.8118 40.2546 40.2545C40.8119 39.6972 41.125 38.9413 41.125 38.1531C41.1225 35.9583 40.2496 33.8542 38.6977 32.3023C37.1457 30.7504 35.0416 29.8774 32.8469 29.8749ZM38.1531 39.2499H17.8469C17.556 39.2499 17.277 39.1344 17.0713 38.9287C16.8656 38.723 16.75 38.444 16.75 38.1531C16.75 36.4548 17.4246 34.8262 18.6254 33.6254C19.8263 32.4246 21.4549 31.7499 23.1531 31.7499H32.8469C34.5451 31.7499 36.1737 32.4246 37.3746 33.6254C38.5754 34.8262 39.25 36.4548 39.25 38.1531C39.25 38.444 39.1344 38.723 38.9287 38.9287C38.723 39.1344 38.444 39.2499 38.1531 39.2499Z" fill="#6D7784"/>
<rect x="0.5" y="0.5" width="55" height="55" rx="15.5" stroke="#DAE9F4"/>
</svg>
