<svg width="56" height="56" viewBox="0 0 56 56" fill="none" xmlns="http://www.w3.org/2000/svg">
<rect x="0.5" y="0.5" width="55" height="55" rx="15.5" fill="white"/>
<path d="M28.0004 40.5626C27.8036 40.5626 27.6068 40.4935 27.4489 40.3554C26.193 39.2564 25.0135 38.2534 23.8729 37.2835C17.7512 32.0777 13.707 28.6386 13.707 23.6179C13.707 19.1226 16.912 15.4375 21.3004 15.4375C23.6657 15.4375 25.7207 16.5733 27.2432 18.7221C27.5431 19.1453 27.7938 19.568 28.0004 19.9609C28.2069 19.5681 28.4577 19.1453 28.7576 18.7221C30.2801 16.5733 32.3351 15.4375 34.7004 15.4375C39.0894 15.4375 42.2938 19.1233 42.2938 23.6179C42.2938 28.6386 38.2496 32.0777 32.128 37.2833C30.9874 38.2533 29.8079 39.2563 28.5519 40.3554C28.394 40.4935 28.1972 40.5626 28.0004 40.5626ZM21.3004 17.1125C17.9264 17.1125 15.382 19.9093 15.382 23.6179C15.382 27.8642 19.1916 31.1038 24.9579 36.0074C25.935 36.8383 26.9405 37.6933 28.0004 38.614C29.0603 37.6933 30.0658 36.8382 31.0429 36.0073C36.8093 31.1038 40.6188 27.8642 40.6188 23.6179C40.6188 19.9093 38.0744 17.1125 34.7004 17.1125C32.8901 17.1125 31.3596 17.967 30.1513 19.6524C29.1983 20.9818 28.8114 22.3469 28.8076 22.3606C28.7067 22.7229 28.3765 22.9742 28.0006 22.9742C28.0001 22.9742 27.9995 22.9742 27.999 22.9742C27.6229 22.9735 27.2933 22.723 27.1932 22.3606C27.1894 22.347 26.8024 20.9818 25.8494 19.6524C24.6412 17.967 23.1106 17.1125 21.3004 17.1125Z" fill="#6D7784"/>
<rect x="0.5" y="0.5" width="55" height="55" rx="15.5" stroke="#DAE9F4"/>
</svg>
