<svg width="56" height="56" viewBox="0 0 56 56" fill="none" xmlns="http://www.w3.org/2000/svg">
<rect x="0.5" y="0.5" width="55" height="55" rx="15.5" fill="white"/>
<g clip-path="url(#clip0_311_2276)">
<path d="M26.5691 16C20.7415 16 16 20.7415 16 26.5691C16 32.3971 20.7415 37.1382 26.5691 37.1382C32.3971 37.1382 37.1382 32.3971 37.1382 26.5691C37.1382 20.7415 32.3971 16 26.5691 16ZM26.5691 35.187C21.8172 35.187 17.9512 31.321 17.9512 26.5691C17.9512 21.8173 21.8172 17.9512 26.5691 17.9512C31.321 17.9512 35.187 21.8172 35.187 26.5691C35.187 31.321 31.321 35.187 26.5691 35.187Z" fill="#6D7784"/>
<path d="M39.7142 38.3346L34.1207 32.7411C33.7395 32.36 33.1223 32.36 32.7411 32.7411C32.36 33.1219 32.36 33.7398 32.7411 34.1206L38.3346 39.7141C38.5252 39.9047 38.7746 40 39.0244 40C39.2738 40 39.5236 39.9047 39.7142 39.7141C40.0953 39.3333 40.0953 38.7154 39.7142 38.3346Z" fill="#6D7784"/>
</g>
<rect x="0.5" y="0.5" width="55" height="55" rx="15.5" stroke="#DAE9F4"/>
<defs>
<clipPath id="clip0_311_2276">
<rect width="24" height="24" fill="white" transform="translate(16 16)"/>
</clipPath>
</defs>
</svg>
