<svg width="32" height="32" viewBox="0 0 32 32" fill="none" xmlns="http://www.w3.org/2000/svg">
<path d="M22.6447 3.4999C23.1269 3.70239 23.6781 3.46647 23.876 2.97287L24.2435 2.05601C24.4413 1.56242 24.2108 0.998126 23.7286 0.795631C23.2464 0.593136 22.6952 0.829061 22.4973 1.32266L22.1298 2.23952C21.9319 2.73305 22.1625 3.2974 22.6447 3.4999Z" fill="url(#paint0_linear_311_2253)"/>
<path d="M14.8984 22.8279C14.4161 22.6254 13.8649 22.8613 13.6671 23.3549L13.2996 24.2717C13.1017 24.7653 13.3323 25.3296 13.8144 25.5322C14.2966 25.7347 14.8479 25.4987 15.0457 25.0052L15.4132 24.0883C15.6111 23.5947 15.3806 23.0304 14.8984 22.8279Z" fill="url(#paint1_linear_311_2253)"/>
<path d="M30.3387 16.9767L29.443 16.6005C28.9608 16.398 28.4095 16.6339 28.2117 17.1275C28.0138 17.6211 28.2443 18.1854 28.7265 18.388L29.6222 18.7641C30.1044 18.9666 30.6557 18.7307 30.8535 18.2371C31.0514 17.7435 30.8209 17.1792 30.3387 16.9767Z" fill="url(#paint2_linear_311_2253)"/>
<path d="M7.2042 9.34939L8.0999 9.72557C8.58211 9.92806 9.13338 9.69208 9.3312 9.19854C9.52902 8.70495 9.29854 8.14066 8.81633 7.9381L7.92063 7.56193C7.43843 7.35943 6.88716 7.59536 6.68934 8.08895H6.68928C6.49152 8.58255 6.722 9.14684 7.2042 9.34939Z" fill="url(#paint3_linear_311_2253)"/>
<path d="M28.1856 9.13357C28.3867 9.62579 28.9395 9.85794 29.4203 9.65215L30.3135 9.2698C30.7944 9.06401 31.0211 8.49811 30.8201 8.00589C30.619 7.51367 30.0662 7.28152 29.5854 7.48731L28.6921 7.86965C28.2113 8.0755 27.9845 8.64135 28.1856 9.13357Z" fill="url(#paint4_linear_311_2253)"/>
<path d="M8.12265 16.6746L7.22946 17.0569C6.7486 17.2628 6.52181 17.8286 6.72285 18.3208C6.92389 18.813 7.47674 19.0452 7.9576 18.8394L8.85084 18.4571C9.3317 18.2513 9.5585 17.6854 9.35745 17.1932C9.1563 16.7009 8.60345 16.4688 8.12265 16.6746Z" fill="url(#paint5_linear_311_2253)"/>
<path d="M23.9426 23.3169C23.7416 22.8246 23.1887 22.5925 22.7079 22.7983C22.227 23.0041 22.0002 23.57 22.2013 24.0622L22.5748 24.9765C22.7758 25.4687 23.3287 25.7009 23.8095 25.4951C24.2904 25.2893 24.5172 24.7234 24.3161 24.2312L23.9426 23.3169Z" fill="url(#paint6_linear_311_2253)"/>
<path d="M14.8349 3.52609C15.3158 3.32024 15.5426 2.75439 15.3415 2.26218L14.968 1.34789C14.767 0.855674 14.2141 0.623464 13.7333 0.829314C13.2524 1.0351 13.0256 1.60101 13.2267 2.09323L13.6002 3.00757C13.8012 3.49973 14.3541 3.73188 14.8349 3.52609Z" fill="url(#paint7_linear_311_2253)"/>
<path d="M18.7716 22.9576C24.0562 22.9576 28.3403 18.5724 28.3403 13.1629C28.3403 7.75337 24.0562 3.3681 18.7716 3.3681C13.4869 3.3681 9.20285 7.75337 9.20285 13.1629C9.20285 18.5724 13.4869 22.9576 18.7716 22.9576Z" fill="url(#paint8_linear_311_2253)"/>
<path d="M18.7716 22.9576C24.0562 22.9576 28.3403 18.5724 28.3403 13.1629C28.3403 7.75337 24.0562 3.3681 18.7716 3.3681C13.4869 3.3681 9.20285 7.75337 9.20285 13.1629C9.20285 18.5724 13.4869 22.9576 18.7716 22.9576Z" fill="url(#paint9_linear_311_2253)"/>
<path d="M23.8683 20.4536C23.9915 20.0705 24.0592 19.6615 24.0592 19.2362C24.0592 17.088 22.3579 15.3466 20.2594 15.3466C19.6466 15.3466 19.0682 15.496 18.5557 15.7597C17.4042 13.1534 14.8419 11.3398 11.8657 11.3398C7.81275 11.3398 4.5272 14.703 4.5272 18.8517C4.5272 19.4913 4.60551 20.1121 4.75248 20.7049C2.61992 21.4028 1.07556 23.4478 1.07556 25.8623C1.07556 28.8522 3.44346 31.2761 6.36443 31.2761H23.6457C23.6457 31.2761 28.9345 28.8522 28.9345 25.8623C28.9345 22.9487 26.686 20.5731 23.8683 20.4536Z" fill="url(#paint10_linear_311_2253)"/>
<path d="M24.0592 19.2368C24.0592 19.6617 23.9925 20.0711 23.8691 20.4541C23.7953 20.4508 23.7205 20.4491 23.6457 20.4491C21.766 20.4491 20.1153 21.4533 19.1779 22.9658C17.6063 22.4894 16.4597 21.0004 16.4597 19.2368C16.4597 17.0885 18.1608 15.3473 20.2595 15.3473C22.3582 15.3473 24.0592 17.0886 24.0592 19.2368Z" fill="url(#paint11_linear_311_2253)"/>
<path d="M18.258 22.5431C16.9989 24.824 14.6079 26.3633 11.8657 26.3633C7.81303 26.3633 4.52731 23.0005 4.52731 18.8516C4.52731 14.7032 7.81303 11.3398 11.8657 11.3398C14.8417 11.3398 17.4042 13.1532 18.5556 15.7588C17.3123 16.398 16.4597 17.7153 16.4597 19.2362C16.4597 20.6325 17.1786 21.857 18.258 22.5431Z" fill="url(#paint12_linear_311_2253)"/>
<path d="M1.07556 25.8631C1.07556 28.8531 3.44346 31.2769 6.36443 31.2769H23.6457C23.6457 31.2769 28.9345 28.8531 28.9345 25.8631C28.9345 25.2833 28.8452 24.725 28.6804 24.2014H1.33039C1.16546 24.7251 1.07556 25.2833 1.07556 25.8631H1.07556Z" fill="url(#paint13_linear_311_2253)"/>
<defs>
<linearGradient id="paint0_linear_311_2253" x1="21.5875" y1="1.5339" x2="24.6962" y2="2.67274" gradientUnits="userSpaceOnUse">
<stop stop-color="#F7E07D"/>
<stop offset="1" stop-color="#E69642"/>
</linearGradient>
<linearGradient id="paint1_linear_311_2253" x1="12.7573" y1="23.5662" x2="15.866" y2="24.7051" gradientUnits="userSpaceOnUse">
<stop stop-color="#F7E07D"/>
<stop offset="1" stop-color="#E69642"/>
</linearGradient>
<linearGradient id="paint2_linear_311_2253" x1="27.151" y1="16.7681" x2="31.7809" y2="18.4643" gradientUnits="userSpaceOnUse">
<stop stop-color="#F7E07D"/>
<stop offset="1" stop-color="#E69642"/>
</linearGradient>
<linearGradient id="paint3_linear_311_2253" x1="5.62865" y1="7.7295" x2="10.2586" y2="9.42569" gradientUnits="userSpaceOnUse">
<stop stop-color="#F7E07D"/>
<stop offset="1" stop-color="#E69642"/>
</linearGradient>
<linearGradient id="paint4_linear_311_2253" x1="27.3401" y1="7.73959" x2="31.5444" y2="9.27978" gradientUnits="userSpaceOnUse">
<stop stop-color="#F7E07D"/>
<stop offset="1" stop-color="#E69642"/>
</linearGradient>
<linearGradient id="paint5_linear_311_2253" x1="5.87743" y1="16.9268" x2="10.0817" y2="18.467" gradientUnits="userSpaceOnUse">
<stop stop-color="#F7E07D"/>
<stop offset="1" stop-color="#E69642"/>
</linearGradient>
<linearGradient id="paint6_linear_311_2253" x1="21.1309" y1="23.33" x2="25.2673" y2="24.8453" gradientUnits="userSpaceOnUse">
<stop stop-color="#F7E07D"/>
<stop offset="1" stop-color="#E69642"/>
</linearGradient>
<linearGradient id="paint7_linear_311_2253" x1="12.1564" y1="1.36095" x2="16.2927" y2="2.87625" gradientUnits="userSpaceOnUse">
<stop stop-color="#F7E07D"/>
<stop offset="1" stop-color="#E69642"/>
</linearGradient>
<linearGradient id="paint8_linear_311_2253" x1="13.5483" y1="7.81622" x2="21.9843" y2="16.0575" gradientUnits="userSpaceOnUse">
<stop stop-color="#F7E07D"/>
<stop offset="1" stop-color="#E69642"/>
</linearGradient>
<linearGradient id="paint9_linear_311_2253" x1="19.6967" y1="10.6244" x2="16.6383" y2="18.6341" gradientUnits="userSpaceOnUse">
<stop stop-color="#D52C1C" stop-opacity="0"/>
<stop offset="0.2813" stop-color="#CC2C20" stop-opacity="0.281"/>
<stop offset="0.7301" stop-color="#B52B2A" stop-opacity="0.73"/>
<stop offset="1" stop-color="#A42B31"/>
</linearGradient>
<linearGradient id="paint10_linear_311_2253" x1="5.26155" y1="15.3865" x2="20.4179" y2="30.1931" gradientUnits="userSpaceOnUse">
<stop stop-color="#EEF4FF"/>
<stop offset="1" stop-color="#CFE7FD"/>
</linearGradient>
<linearGradient id="paint11_linear_311_2253" x1="19.6482" y1="19.1566" x2="25.346" y2="19.1566" gradientUnits="userSpaceOnUse">
<stop stop-color="#8AAADC" stop-opacity="0"/>
<stop offset="1" stop-color="#8AAADC"/>
</linearGradient>
<linearGradient id="paint12_linear_311_2253" x1="13.8588" y1="16.8319" x2="19.4476" y2="11.4267" gradientUnits="userSpaceOnUse">
<stop stop-color="#8AAADC" stop-opacity="0"/>
<stop offset="1" stop-color="#8AAADC"/>
</linearGradient>
<linearGradient id="paint13_linear_311_2253" x1="15.005" y1="27.4445" x2="15.005" y2="32.2173" gradientUnits="userSpaceOnUse">
<stop stop-color="#A9CBFF" stop-opacity="0"/>
<stop offset="0.0625" stop-color="#D0E2FF" stop-opacity="0.0625"/>
<stop offset="1" stop-color="#AFCEFF"/>
</linearGradient>
</defs>
</svg>
