<svg width="48" height="49" viewBox="0 0 48 49" fill="none" xmlns="http://www.w3.org/2000/svg">
<path d="M35.9329 12.3608C36.6357 12.656 37.4391 12.3121 37.7275 11.5927L38.2631 10.2565C38.5514 9.53713 38.2155 8.71473 37.5127 8.41961C36.81 8.12449 36.0065 8.46833 35.7181 9.18771L35.1826 10.5239C34.8942 11.2432 35.2301 12.0657 35.9329 12.3608Z" fill="url(#paint0_linear_1_14876)"/>
<path d="M24.6435 40.5294C23.9407 40.2343 23.1373 40.5782 22.849 41.2974L22.3134 42.6337C22.0251 43.353 22.3611 44.1755 23.0638 44.4707C23.7666 44.7658 24.57 44.4218 24.8583 43.7026L25.3939 42.3663C25.6823 41.647 25.3463 40.8245 24.6435 40.5294Z" fill="url(#paint1_linear_1_14876)"/>
<path d="M47.1462 32.0024L45.8408 31.4542C45.138 31.1591 44.3346 31.5029 44.0462 32.2223C43.7579 32.9417 44.0938 33.7641 44.7966 34.0593L46.102 34.6075C46.8048 34.9026 47.6082 34.5588 47.8965 33.8394C48.1849 33.12 47.849 32.2976 47.1462 32.0024Z" fill="url(#paint2_linear_1_14876)"/>
<path d="M13.43 20.886L14.7354 21.4343C15.4382 21.7294 16.2416 21.3855 16.5299 20.6662C16.8182 19.9468 16.4823 19.1244 15.7795 18.8292L14.4741 18.281C13.7714 17.9858 12.9679 18.3297 12.6796 19.0491H12.6795C12.3913 19.7684 12.7272 20.5908 13.43 20.886Z" fill="url(#paint3_linear_1_14876)"/>
<path d="M44.0084 20.5718C44.3015 21.2892 45.1071 21.6275 45.8079 21.3276L47.1096 20.7704C47.8105 20.4705 48.141 19.6457 47.848 18.9283C47.5549 18.211 46.7493 17.8726 46.0485 18.1726L44.7466 18.7298C44.0458 19.0298 43.7153 19.8545 44.0084 20.5718Z" fill="url(#paint4_linear_1_14876)"/>
<path d="M14.7684 31.5625L13.4667 32.1197C12.7659 32.4197 12.4353 33.2444 12.7283 33.9617C13.0213 34.6791 13.8271 35.0174 14.5279 34.7175L15.8297 34.1604C16.5305 33.8604 16.861 33.0357 16.568 32.3183C16.2749 31.6009 15.4691 31.2625 14.7684 31.5625Z" fill="url(#paint5_linear_1_14876)"/>
<path d="M24.5508 12.3991C25.2516 12.099 25.5822 11.2744 25.2892 10.557L24.7448 9.22452C24.4518 8.50716 23.6461 8.16873 22.9452 8.46874C22.2444 8.76866 21.9139 9.59342 22.2069 10.3108L22.7513 11.6434C23.0443 12.3606 23.85 12.699 24.5508 12.3991Z" fill="url(#paint6_linear_1_14876)"/>
<path d="M30.2884 40.7193C37.9903 40.7193 44.234 34.3282 44.234 26.4443C44.234 18.5605 37.9903 12.1693 30.2884 12.1693C22.5865 12.1693 16.3428 18.5605 16.3428 26.4443C16.3428 34.3282 22.5865 40.7193 30.2884 40.7193Z" fill="url(#paint7_linear_1_14876)"/>
<path d="M30.2884 40.719C37.9903 40.719 44.234 34.3278 44.234 26.444C44.234 18.5601 37.9903 12.169 30.2884 12.169C22.5865 12.169 16.3428 18.5601 16.3428 26.444C16.3428 34.3278 22.5865 40.719 30.2884 40.719Z" fill="url(#paint8_linear_1_14876)"/>
<path d="M33.2171 31.0264C33.1665 31.0264 33.116 31.0277 33.0654 31.0285C33.1639 30.6249 33.2171 30.2036 33.2171 29.7694C33.2171 26.8418 30.8435 24.4682 27.9159 24.4682C26.7639 24.4682 25.6992 24.8368 24.8297 25.4607C23.0192 22.7172 19.9097 20.9062 16.3771 20.9062C10.7877 20.9062 6.25702 25.4374 6.25702 31.0268C6.25702 31.0609 6.25789 31.0951 6.25832 31.1292C2.7072 31.7199 0 34.8052 0 38.524C0 42.6645 3.35667 46.0212 7.49719 46.0212H33.2171C37.3576 46.0212 40.7143 42.6645 40.7143 38.524C40.7143 34.383 37.3576 31.0264 33.2171 31.0264Z" fill="url(#paint9_radial_1_14876)"/>
<path d="M40.7143 38.5239C40.7143 42.6644 37.3577 46.021 33.2171 46.021C29.0766 46.021 25.7199 42.6644 25.7199 38.5239C25.7199 34.3829 29.0766 31.0262 33.2171 31.0262C37.3577 31.0262 40.7143 34.3829 40.7143 38.5239Z" fill="url(#paint10_linear_1_14876)"/>
<path d="M33.2171 29.7692C33.2171 32.6972 30.8435 35.0708 27.9159 35.0708C24.9879 35.0708 22.6143 32.6972 22.6143 29.7692C22.6143 26.8416 24.9879 24.468 27.9159 24.468C30.8435 24.468 33.2171 26.8416 33.2171 29.7692Z" fill="url(#paint11_linear_1_14876)"/>
<path d="M26.4972 31.0264C26.4972 36.6158 21.9661 41.1469 16.3771 41.1469C10.7877 41.1469 6.25656 36.6158 6.25656 31.0264C6.25656 25.4374 10.7877 20.9062 16.3771 20.9062C21.9661 20.9062 26.4972 25.4374 26.4972 31.0264Z" fill="url(#paint12_linear_1_14876)"/>
<path d="M14.9944 38.5239C14.9944 42.6644 11.6381 46.021 7.49719 46.021C3.35667 46.021 0 42.6644 0 38.5239C0 34.3829 3.35667 31.0262 7.49719 31.0262C11.6381 31.0262 14.9944 34.3829 14.9944 38.5239Z" fill="url(#paint13_linear_1_14876)"/>
<path d="M0.069397 39.5451C0.567625 43.2029 3.70305 46.0216 7.49702 46.0216H33.2169C37.0109 46.0216 40.1463 43.2029 40.6445 39.5451H0.069397Z" fill="url(#paint14_linear_1_14876)"/>
<path d="M21.3179 46.0211L20.9268 45.6296C20.3715 45.0298 19.5777 44.6538 18.6958 44.6538C18.6854 44.6538 18.675 44.6547 18.6651 44.6551C18.659 44.6491 18.653 44.643 18.6469 44.6374L16.6402 42.6311C15.7678 41.7168 14.538 41.1468 13.1746 41.1468C10.5271 41.1468 8.3812 43.2931 8.3812 45.9403C8.3812 45.9532 8.38206 45.9662 8.38206 45.9796C8.32502 45.9912 8.26885 46.0055 8.2131 46.0211H21.3179Z" fill="url(#paint15_linear_1_14876)"/>
<path d="M19.8456 4.02703C18.1329 2.30107 15.3564 2.30107 13.6437 4.02703C12.2737 5.40764 12.2737 7.64663 13.6437 9.02723C14.1917 9.57947 14.9098 9.85559 15.629 9.85559C16.3222 9.85559 17.0163 9.59788 17.5566 9.08344C16.6904 9.92636 15.5699 10.3473 14.4508 10.3473C13.3058 10.3473 12.1612 9.90692 11.2883 9.02723C11.24 8.97857 11.1912 8.93045 11.142 8.88298C8.58145 6.41392 4.51285 6.50983 2.00694 9.03516L0.6603 10.3922C-0.219408 11.2788 -0.219408 12.7161 0.6603 13.6025C1.54001 14.4891 2.96625 14.4891 3.84591 13.6025L4.3724 13.072C5.94718 11.485 8.33197 11.008 10.3681 11.9172C10.4016 11.9321 10.4342 11.9471 10.466 11.9621C13.3069 13.3024 16.7274 14.9823 19.8457 11.8398C21.8233 9.84674 21.9866 6.18462 19.8456 4.02703Z" fill="url(#paint16_linear_1_14876)"/>
<path d="M13.9918 5.37851C13.5666 5.80698 13.247 6.42466 13.0968 7.07075C12.9344 7.76914 13.1337 8.51082 13.6354 9.01956C13.638 9.02217 13.6406 9.02477 13.6432 9.02733C14.1911 9.57957 14.9093 9.85569 15.6284 9.85569C16.1798 9.85569 16.7314 9.69205 17.206 9.3665C17.3543 9.26298 17.4912 9.14953 17.6125 9.02727C18.6124 8.01968 18.6124 6.3861 17.6125 5.37851C16.6127 4.37092 14.9916 4.37092 13.9918 5.37851Z" fill="url(#paint17_linear_1_14876)"/>
<path d="M13.4699 8.83721C13.5253 8.90173 13.5824 8.96528 13.6432 9.02659C14.1912 9.57883 14.9094 9.85495 15.6285 9.85495C16.3217 9.85495 17.0158 9.59725 17.5561 9.08281C16.6899 9.92572 15.5694 10.3467 14.4503 10.3466C13.3053 10.3466 12.1608 9.90628 11.2879 9.02659C11.2396 8.97793 11.1907 8.92981 11.1415 8.88234C11.1254 8.86681 11.1086 8.85258 11.0923 8.83726H2.21208C2.14262 8.90157 2.07369 8.96674 2.00643 9.03452L0.659781 10.3916C-0.219927 11.2781 -0.219927 12.7154 0.659781 13.6019C1.53944 14.4884 2.96574 14.4884 3.84539 13.6019L4.37188 13.0714C5.94666 11.4844 8.33146 11.0073 10.3676 11.9166C10.401 11.9315 10.4337 11.9464 10.4655 11.9615C13.3064 13.3018 16.7269 14.9817 19.8452 11.8392C20.6391 11.0391 21.1398 9.96993 21.3173 8.83726H13.4699V8.83721Z" fill="url(#paint18_linear_1_14876)"/>
<defs>
<linearGradient id="paint0_linear_1_14876" x1="34.3922" y1="9.49557" x2="38.9229" y2="11.1553" gradientUnits="userSpaceOnUse">
<stop stop-color="#F7E07D"/>
<stop offset="1" stop-color="#E69642"/>
</linearGradient>
<linearGradient id="paint1_linear_1_14876" x1="21.5231" y1="41.6055" x2="26.0537" y2="43.2652" gradientUnits="userSpaceOnUse">
<stop stop-color="#F7E07D"/>
<stop offset="1" stop-color="#E69642"/>
</linearGradient>
<linearGradient id="paint2_linear_1_14876" x1="42.5004" y1="31.6984" x2="49.248" y2="34.1705" gradientUnits="userSpaceOnUse">
<stop stop-color="#F7E07D"/>
<stop offset="1" stop-color="#E69642"/>
</linearGradient>
<linearGradient id="paint3_linear_1_14876" x1="11.1338" y1="18.5252" x2="17.8814" y2="20.9972" gradientUnits="userSpaceOnUse">
<stop stop-color="#F7E07D"/>
<stop offset="1" stop-color="#E69642"/>
</linearGradient>
<linearGradient id="paint4_linear_1_14876" x1="42.7762" y1="18.5402" x2="48.9036" y2="20.7849" gradientUnits="userSpaceOnUse">
<stop stop-color="#F7E07D"/>
<stop offset="1" stop-color="#E69642"/>
</linearGradient>
<linearGradient id="paint5_linear_1_14876" x1="11.4962" y1="31.9301" x2="17.6235" y2="34.1748" gradientUnits="userSpaceOnUse">
<stop stop-color="#F7E07D"/>
<stop offset="1" stop-color="#E69642"/>
</linearGradient>
<linearGradient id="paint6_linear_1_14876" x1="20.6471" y1="9.24356" x2="26.6754" y2="11.452" gradientUnits="userSpaceOnUse">
<stop stop-color="#F7E07D"/>
<stop offset="1" stop-color="#E69642"/>
</linearGradient>
<linearGradient id="paint7_linear_1_14876" x1="22.676" y1="18.6521" x2="34.9706" y2="30.663" gradientUnits="userSpaceOnUse">
<stop stop-color="#F7E07D"/>
<stop offset="1" stop-color="#E69642"/>
</linearGradient>
<linearGradient id="paint8_linear_1_14876" x1="31.6366" y1="22.7444" x2="27.1793" y2="34.4179" gradientUnits="userSpaceOnUse">
<stop stop-color="#D52C1C" stop-opacity="0"/>
<stop offset="0.2813" stop-color="#CC2C20" stop-opacity="0.281"/>
<stop offset="0.7301" stop-color="#B52B2A" stop-opacity="0.73"/>
<stop offset="1" stop-color="#A42B31"/>
</linearGradient>
<radialGradient id="paint9_radial_1_14876" cx="0" cy="0" r="1" gradientUnits="userSpaceOnUse" gradientTransform="translate(13.4639 18.153) scale(30.8925 30.8925)">
<stop stop-color="#ECF7FF"/>
<stop offset="0.3473" stop-color="#E9F5FF"/>
<stop offset="0.62" stop-color="#DFF0FF"/>
<stop offset="0.8666" stop-color="#CEE7FF"/>
<stop offset="1" stop-color="#C2E0FF"/>
</radialGradient>
<linearGradient id="paint10_linear_1_14876" x1="33.133" y1="38.7774" x2="37.5859" y2="25.3432" gradientUnits="userSpaceOnUse">
<stop offset="0.0029" stop-color="#C2E0FF" stop-opacity="0"/>
<stop offset="0.0763" stop-color="#BFDCFD" stop-opacity="0.07451"/>
<stop offset="1" stop-color="#9EB2E7"/>
</linearGradient>
<linearGradient id="paint11_linear_1_14876" x1="28.0389" y1="29.5868" x2="33.764" y2="21.0984" gradientUnits="userSpaceOnUse">
<stop offset="0.0029" stop-color="#C2E0FF" stop-opacity="0"/>
<stop offset="0.0763" stop-color="#BFDCFD" stop-opacity="0.07451"/>
<stop offset="1" stop-color="#9EB2E7"/>
</linearGradient>
<linearGradient id="paint12_linear_1_14876" x1="16.377" y1="31.077" x2="16.377" y2="16.4177" gradientUnits="userSpaceOnUse">
<stop offset="0.0029" stop-color="#C2E0FF" stop-opacity="0"/>
<stop offset="0.0763" stop-color="#BFDCFD" stop-opacity="0.07451"/>
<stop offset="1" stop-color="#9EB2E7"/>
</linearGradient>
<linearGradient id="paint13_linear_1_14876" x1="7.62967" y1="38.6487" x2="-1.40786" y2="30.1075" gradientUnits="userSpaceOnUse">
<stop offset="0.0029" stop-color="#C2E0FF" stop-opacity="0"/>
<stop offset="0.0763" stop-color="#BFDCFD" stop-opacity="0.07451"/>
<stop offset="1" stop-color="#9EB2E7"/>
</linearGradient>
<linearGradient id="paint14_linear_1_14876" x1="20.3571" y1="40.5876" x2="20.3571" y2="51.0261" gradientUnits="userSpaceOnUse">
<stop offset="0.0029" stop-color="#C2E0FF" stop-opacity="0"/>
<stop offset="0.0763" stop-color="#BFDCFD" stop-opacity="0.07451"/>
<stop offset="1" stop-color="#9EB2E7"/>
</linearGradient>
<linearGradient id="paint15_linear_1_14876" x1="19.5337" y1="50.7875" x2="8.60824" y2="39.862" gradientUnits="userSpaceOnUse">
<stop offset="0.0029" stop-color="#C2E0FF" stop-opacity="0"/>
<stop offset="0.0763" stop-color="#BFDCFD" stop-opacity="0.07451"/>
<stop offset="1" stop-color="#9EB2E7"/>
</linearGradient>
<linearGradient id="paint16_linear_1_14876" x1="3.21453" y1="5.07391" x2="11.6988" y2="16.0729" gradientUnits="userSpaceOnUse">
<stop stop-color="#EEF4FF"/>
<stop offset="1" stop-color="#CFE7FD"/>
</linearGradient>
<linearGradient id="paint17_linear_1_14876" x1="15.7019" y1="6.40549" x2="17.8605" y2="10.3603" gradientUnits="userSpaceOnUse">
<stop stop-color="#BCD3F1" stop-opacity="0"/>
<stop offset="1" stop-color="#9DBBE4"/>
</linearGradient>
<linearGradient id="paint18_linear_1_14876" x1="10.6586" y1="10.6869" x2="10.6586" y2="13.616" gradientUnits="userSpaceOnUse">
<stop stop-color="#BCD3F1" stop-opacity="0"/>
<stop offset="1" stop-color="#9DBBE4"/>
</linearGradient>
</defs>
</svg>
